#define boot_img_width 128
#define boot_img_height 42
static unsigned char boot_img_bits[] = {
   0x00, 0x00, 0x00, 0x00, 0x00, 0x00, 0x00, 0x00, 0x00, 0x00, 0x00, 0x00,
   0x00, 0x00, 0x00, 0x00, 0x00, 0x00, 0x00, 0x00, 0x00, 0x00, 0xf0, 0xff,
   0x7f, 0x00, 0x00, 0x00, 0x00, 0x00, 0x00, 0x00, 0x00, 0x00, 0x00, 0x00,
   0x00, 0x80, 0xff, 0xff, 0xff, 0x03, 0x00, 0x00, 0x00, 0x00, 0x00, 0x00,
   0x00, 0x00, 0x00, 0x00, 0x00, 0xfc, 0x23, 0x00, 0x80, 0x1f, 0x00, 0x00,
   0x00, 0x00, 0x00, 0x00, 0x00, 0x00, 0x00, 0x00, 0x80, 0xff, 0x71, 0x00,
   0x00, 0x7c, 0x00, 0x00, 0x00, 0x00, 0x00, 0x00, 0x00, 0x00, 0x00, 0x00,
   0xf0, 0x0f, 0xf8, 0x00, 0x00, 0xf0, 0x00, 0x00, 0x00, 0x00, 0x00, 0x00,
   0x00, 0x00, 0x00, 0x00, 0xfe, 0x03, 0xf4, 0x01, 0x00, 0xc0, 0x03, 0x00,
   0x00, 0x00, 0x00, 0x00, 0x00, 0x00, 0x00, 0xc0, 0x3f, 0x00, 0xee, 0x01,
   0x00, 0x00, 0x0f, 0x00, 0x00, 0x00, 0x00, 0x00, 0x00, 0x00, 0x00, 0xf0,
   0x07, 0x00, 0x5f, 0x00, 0x00, 0x00, 0x1c, 0x00, 0x00, 0x00, 0x00, 0x00,
   0xfe, 0x1f, 0x00, 0xf8, 0x00, 0x80, 0x3f, 0x00, 0x00, 0x00, 0x38, 0x00,
   0x00, 0x00, 0x00, 0x00, 0xfe, 0x3f, 0x00, 0x3e, 0x00, 0x40, 0x3f, 0x10,
   0x00, 0x00, 0xf0, 0x00, 0x00, 0x00, 0x00, 0x00, 0x06, 0x70, 0x80, 0x0f,
   0x00, 0xf0, 0xfe, 0x0f, 0x00, 0x00, 0xe0, 0x01, 0x00, 0x00, 0x00, 0x00,
   0x06, 0xe0, 0xe0, 0x03, 0x00, 0xf0, 0xfd, 0x0f, 0x00, 0x00, 0x9c, 0x03,
   0x00, 0x00, 0x00, 0x00, 0x06, 0xc0, 0xf1, 0x00, 0x00, 0xe0, 0xf3, 0x0f,
   0x00, 0x00, 0x3e, 0x0f, 0x00, 0x00, 0x00, 0x00, 0x06, 0x80, 0x7f, 0x00,
   0x00, 0xc0, 0x71, 0x0e, 0x01, 0x00, 0x7e, 0xfe, 0x03, 0x00, 0x00, 0x00,
   0x0e, 0x00, 0x1f, 0x00, 0x00, 0x80, 0x71, 0x8e, 0x03, 0x00, 0xfc, 0xf9,
   0xff, 0x00, 0x00, 0x00, 0x0c, 0x00, 0x00, 0x00, 0x00, 0x00, 0xf0, 0xcf,
   0x07, 0x00, 0x40, 0x80, 0xff, 0x0f, 0x00, 0x00, 0x1c, 0x00, 0x00, 0x00,
   0x00, 0x00, 0xf0, 0xbf, 0x0f, 0x00, 0x00, 0x00, 0xe0, 0xff, 0x01, 0x00,
   0x1c, 0x00, 0x00, 0x00, 0x00, 0x00, 0xf0, 0x7f, 0x07, 0x00, 0x00, 0x00,
   0x00, 0xf8, 0x0f, 0x00, 0x18, 0x00, 0x00, 0x00, 0x00, 0x00, 0x08, 0xfc,
   0x02, 0x00, 0x00, 0x00, 0x00, 0x00, 0x7f, 0x00, 0x18, 0x00, 0x00, 0x00,
   0x00, 0x00, 0x00, 0xfc, 0x01, 0x00, 0x00, 0x00, 0x00, 0x00, 0xfc, 0x01,
   0x18, 0x00, 0x00, 0x00, 0x00, 0x00, 0x00, 0xfa, 0x00, 0x00, 0x00, 0x00,
   0x00, 0x00, 0xe0, 0x03, 0x1c, 0x00, 0x00, 0x00, 0x00, 0x00, 0x00, 0x77,
   0x00, 0x00, 0x00, 0x00, 0x00, 0x00, 0x80, 0x07, 0x1c, 0x00, 0x00, 0x00,
   0x00, 0x00, 0x80, 0x2f, 0x00, 0x00, 0x00, 0x00, 0x00, 0x00, 0x00, 0x0e,
   0x0e, 0x00, 0x00, 0x00, 0x00, 0x00, 0x00, 0x1f, 0x00, 0x00, 0x00, 0x00,
   0x00, 0x00, 0x00, 0x1c, 0x0e, 0x00, 0x00, 0x00, 0x00, 0x00, 0x00, 0x0e,
   0x00, 0x00, 0x00, 0x00, 0x00, 0x00, 0x00, 0x1c, 0x06, 0x00, 0x00, 0x00,
   0xe0, 0x9f, 0x7f, 0xe4, 0xf8, 0xfb, 0x0f, 0x00, 0x00, 0x00, 0x00, 0x1c,
   0x06, 0x00, 0x00, 0x00, 0xe0, 0xbf, 0xff, 0xf0, 0xfc, 0xf9, 0x07, 0x00,
   0x00, 0x00, 0x00, 0x0c, 0x06, 0x00, 0x00, 0x00, 0x70, 0xdc, 0xe1, 0xf8,
   0x0e, 0x1c, 0x00, 0x00, 0x00, 0x00, 0x00, 0x1c, 0x06, 0x00, 0x00, 0x00,
   0x70, 0xdc, 0x7f, 0xdc, 0x06, 0xfc, 0x01, 0x00, 0x00, 0x00, 0x00, 0x38,
   0x06, 0x00, 0x00, 0x00, 0x30, 0xde, 0x3f, 0xce, 0x06, 0xfc, 0x00, 0x00,
   0x00, 0x00, 0x00, 0x38, 0x06, 0x00, 0x00, 0x00, 0x38, 0xef, 0x0e, 0xc7,
   0x0e, 0x0e, 0x00, 0x00, 0x00, 0x00, 0x00, 0x38, 0x06, 0x00, 0x00, 0x00,
   0xf8, 0xe7, 0x9c, 0xff, 0xfc, 0xfe, 0x03, 0x00, 0x00, 0x00, 0x00, 0x70,
   0x06, 0x00, 0x00, 0x00, 0xfc, 0x71, 0xb8, 0xcf, 0x78, 0xfe, 0x01, 0x00,
   0x00, 0x00, 0x00, 0x70, 0x06, 0x00, 0x00, 0x00, 0x00, 0x00, 0x00, 0x00,
   0x00, 0x00, 0x00, 0x00, 0x00, 0x00, 0x00, 0x70, 0xfe, 0xff, 0x0f, 0x00,
   0xfe, 0xff, 0xff, 0xff, 0xff, 0xff, 0xff, 0xff, 0x07, 0x00, 0xff, 0x7f,
   0xfe, 0xff, 0x1f, 0x00, 0xff, 0xff, 0xff, 0xff, 0xff, 0xff, 0xff, 0xff,
   0x0f, 0x80, 0xff, 0x7f, 0xfc, 0xff, 0x3f, 0x80, 0xff, 0xff, 0xff, 0xff,
   0xff, 0xff, 0xff, 0xff, 0x1f, 0xc0, 0xff, 0x3f, 0x00, 0x00, 0xf8, 0xe0,
   0x03, 0x00, 0x00, 0x00, 0x00, 0x00, 0x00, 0x00, 0x7c, 0xf0, 0x01, 0x00,
   0x00, 0x00, 0xf0, 0xff, 0x01, 0x00, 0x00, 0x00, 0x00, 0x00, 0x00, 0x00,
   0xf8, 0xff, 0x00, 0x00, 0x00, 0x00, 0xe0, 0xff, 0x00, 0x00, 0x00, 0x00,
   0x00, 0x00, 0x00, 0x00, 0xf0, 0x7f, 0x00, 0x00, 0x00, 0x00, 0x00, 0x1f,
   0x00, 0x00, 0x00, 0x00, 0x00, 0x00, 0x00, 0x00, 0x80, 0x0f, 0x00, 0x00 };
