#define icon_gps_width 9
#define icon_gps_height 9
static unsigned char icon_gps_bits[] = {
   0x04, 0x00, 0x4e, 0x00, 0xec, 0x00, 0x70, 0x00, 0x38, 0x00, 0xd0, 0x00,
   0xc5, 0x01, 0x81, 0x00, 0x06, 0x00 };
