#define test_width 16
#define test_height 16
static unsigned char test_bits[] = {
    0xff, 0xff, 0xff, 0xff, 0x03, 0xf0, 0x03, 0xf0, 0x03, 0xcc, 0x03, 0xcc,
    0x03, 0xc3, 0x03, 0xc3, 0xc3, 0xc0, 0xc3, 0xc0, 0x33, 0xc0, 0x33, 0xc0,
    0x0f, 0xc0, 0x0f, 0xc0, 0xff, 0xff, 0xff, 0xff };
