#define warning_width 9
#define warning_height 9
static unsigned char warning_bits[] = {
   0x00, 0x00, 0x10, 0x00, 0x38, 0x00, 0x6c, 0x00, 0xee, 0x00, 0xff, 0x01,
   0xef, 0x01, 0xfe, 0x00, 0x00, 0x00 };
